<svg class="diagram-root" style="background: #f5f6f6" xmlns="http://www.w3.org/2000/svg" xmlns:xlink="http://www.w3.org/1999/xlink"><style>.diagram-root { font-family: "Helvetica Neue", sans-serif; font-size: 12px; } .t { overflow: visible; } .t-bg { y: 40; fill: #fff;   } .th { fill: #005aa0;   } .tht { fill: #fff; font-size: 14px;  } .tf { fill: #323c46; overflow: visible; } .tf.pk { fill: #005aa0; font-weight: bold; } .tf.fk { font-weight: bold; } .ty { fill: #adb1b5; font-weight: normal; text-anchor: end; } .r { fill: transparent; stroke: #c3c3c3; stroke-width: 1; } .l { stroke: 1; } .i { fill: #c2c7ce; stroke: #c2c7ce; } .i.ix { fill: #afb3b6; stroke: #000; } .fa { fill: transparent; overflow: visible; } .fa .bg.hover { fill: #f7f7f7; } .c { cy: 12; r: 4; stroke: #d2d2dc; fill: #d2d2dc; } .hr { fill: transparent; stroke: #323c46; stroke-opacity: 0.035; stroke-width: 13; } .dc { stroke: #fa5a3c; fill: #fa5a3c; } .x { stroke: white; stroke-width: 1; } .hl .th { fill: #1b9bff; } .hl .tht {  } .fhl .bg { fill: #e7f4ff; } .fhls .bg {  } .r.hl { stroke: #1b9bff; } .dim { opacity: 0.25; }</style><g class="drawing-wrapper" transform="translate(-27, 3) scale(1,1)"><g class="rs"><path d="M 169.71 248 m -1, 0 a 1,1 0 1,0 2,0 a 1,1 0 1,0 -2,0 M 169.71 248 m -0.5, 0 a 0.5,0.5 0 1,0 1,0 a 0.5,0.5 0 1,0 -1,0  M169.71 248 L169.71 248 181.71 248 M 169.71 254 m -1, 0 a 1,1 0 1,0 2,0 a 1,1 0 1,0 -2,0 M 169.71 254 m -0.5, 0 a 0.5,0.5 0 1,0 1,0 a 0.5,0.5 0 1,0 -1,0  M169.71 254 L169.71 254 176.71 248 169.71 242 M 169.71 242 m -1, 0 a 1,1 0 1,0 2,0 a 1,1 0 1,0 -2,0 M 169.71 242 m -0.5, 0 a 0.5,0.5 0 1,0 1,0 a 0.5,0.5 0 1,0 -1,0  M181.71 248 Q 240.79 248, 299.86 256.5 T 418 265 M 430 265 m -1, 0 a 1,1 0 1,0 2,0 a 1,1 0 1,0 -2,0 M 430 265 m -0.5, 0 a 0.5,0.5 0 1,0 1,0 a 0.5,0.5 0 1,0 -1,0  M430 265 L430 265 418 265 M424 271 L424 271 424 259" id="h1309336982" class="r"></path><path d="M 347.7 209 m -1, 0 a 1,1 0 1,0 2,0 a 1,1 0 1,0 -2,0 M 347.7 209 m -0.5, 0 a 0.5,0.5 0 1,0 1,0 a 0.5,0.5 0 1,0 -1,0  M347.7 209 L347.7 209 359.7 209 M 347.7 215 m -1, 0 a 1,1 0 1,0 2,0 a 1,1 0 1,0 -2,0 M 347.7 215 m -0.5, 0 a 0.5,0.5 0 1,0 1,0 a 0.5,0.5 0 1,0 -1,0  M347.7 215 L347.7 215 354.7 209 347.7 203 M 347.7 203 m -1, 0 a 1,1 0 1,0 2,0 a 1,1 0 1,0 -2,0 M 347.7 203 m -0.5, 0 a 0.5,0.5 0 1,0 1,0 a 0.5,0.5 0 1,0 -1,0  M359.7 209 C 409.7 209, 516.494 248, 181.71 248 M 169.71 248 m -1, 0 a 1,1 0 1,0 2,0 a 1,1 0 1,0 -2,0 M 169.71 248 m -0.5, 0 a 0.5,0.5 0 1,0 1,0 a 0.5,0.5 0 1,0 -1,0  M169.71 248 L169.71 248 181.71 248 M175.71 254 L175.71 254 175.71 242" id="h199097289" class="r"></path><path d="M 430 240 m -1, 0 a 1,1 0 1,0 2,0 a 1,1 0 1,0 -2,0 M 430 240 m -0.5, 0 a 0.5,0.5 0 1,0 1,0 a 0.5,0.5 0 1,0 -1,0  M430 240 L430 240 418 240 M 430 246 m -1, 0 a 1,1 0 1,0 2,0 a 1,1 0 1,0 -2,0 M 430 246 m -0.5, 0 a 0.5,0.5 0 1,0 1,0 a 0.5,0.5 0 1,0 -1,0  M430 246 L430 246 423 240 430 234 M 430 234 m -1, 0 a 1,1 0 1,0 2,0 a 1,1 0 1,0 -2,0 M 430 234 m -0.5, 0 a 0.5,0.5 0 1,0 1,0 a 0.5,0.5 0 1,0 -1,0  M418 240 Q 358.93 240, 299.86 244 T 181.71 248 M 169.71 248 m -1, 0 a 1,1 0 1,0 2,0 a 1,1 0 1,0 -2,0 M 169.71 248 m -0.5, 0 a 0.5,0.5 0 1,0 1,0 a 0.5,0.5 0 1,0 -1,0  M169.71 248 L169.71 248 181.71 248 M175.71 254 L175.71 254 175.71 242" id="h2344109619" class="r"></path></g><g class="hrs"></g><g class="ts"><svg width="120.71" height="150" x="49" y="191" id="h3850950670" class="t"><rect height="40" width="120.71" class="th"></rect><text x="13" y="25" class="tht">Team</text><rect height="110" width="120.71" class="t-bg"></rect><text x="13" y="61" class="tf pk">team_id</text><path d="M7,14A2,2 0 0,1 5,12A2,2 0 0,1 7,10A2,2 0 0,1 9,12A2,2 0 0,1 7,14M12.65,10C11.83,7.67 9.61,6 7, 6A6, 6 0 0, 0 1, 12A6, 6 0 0, 0 7, 18C9.61, 18 11.83, 16.33 12.65, 14H17V18H21V14H23V10H12.65Z" class="i pk" transform="translate(92.71, 48) scale(0.65)"></path><text x="13" y="86" class="tf">team_name</text><text x="13" y="111" class="tf">team_location</text><text x="13" y="136" class="tf">abbreviation</text></svg><svg width="109.7" height="200" x="238" y="27" id="h1377546824" class="t"><rect height="40" width="109.7" class="th"></rect><text x="13" y="25" class="tht">Player</text><rect height="160" width="109.7" class="t-bg"></rect><text x="13" y="61" class="tf pk">player_id</text><path d="M7,14A2,2 0 0,1 5,12A2,2 0 0,1 7,10A2,2 0 0,1 9,12A2,2 0 0,1 7,14M12.65,10C11.83,7.67 9.61,6 7, 6A6, 6 0 0, 0 1, 12A6, 6 0 0, 0 7, 18C9.61, 18 11.83, 16.33 12.65, 14H17V18H21V14H23V10H12.65Z" class="i pk" transform="translate(81.7, 48) scale(0.65)"></path><text x="13" y="86" class="tf">first_name</text><text x="13" y="111" class="tf">last_name</text><text x="13" y="136" class="tf">bday</text><text x="13" y="161" class="tf">position</text><text x="13" y="186" class="tf fk">team_id</text></svg><svg width="145.39" height="225" x="430" y="108" id="h2724772115" class="t"><rect height="40" width="145.39" class="th"></rect><text x="13" y="25" class="tht">Game</text><rect height="185" width="145.39" class="t-bg"></rect><text x="13" y="61" class="tf pk">game_id</text><path d="M7,14A2,2 0 0,1 5,12A2,2 0 0,1 7,10A2,2 0 0,1 9,12A2,2 0 0,1 7,14M12.65,10C11.83,7.67 9.61,6 7, 6A6, 6 0 0, 0 1, 12A6, 6 0 0, 0 7, 18C9.61, 18 11.83, 16.33 12.65, 14H17V18H21V14H23V10H12.65Z" class="i pk" transform="translate(117.38999999999999, 48) scale(0.65)"></path><text x="13" y="86" class="tf">date</text><text x="13" y="111" class="tf">game_location</text><text x="13" y="136" class="tf fk">home_team_id</text><text x="13" y="161" class="tf fk">away_team_id</text><text x="13" y="186" class="tf">home_team_score</text><text x="13" y="211" class="tf">away_team_score</text></svg></g></g><text class="qdbd-link" x="10" y="20">www.quickdatabasediagrams.com</text></svg>